<?xml version="1.0" encoding="UTF-8"?>
<svg id="Camada_1" data-name="Camada 1" xmlns="http://www.w3.org/2000/svg" viewBox="0 0 1000 1000">
  <defs>
    <style>
      .cls-1 {
        fill: #2a442a;
      }
    </style>
  </defs>
  <path class="cls-1" d="M820.53,448.28c2.19,127.93-113.52,175.77-228.16,162.35-78.09-9.15-43.98-77.84-6.9-121.84,55.16-65.46,159.19-34.03,235.06-40.51Z"/>
  <path class="cls-1" d="M468.34,800.95c-130.26,14.08-275.32-1.22-278.74-161.56,134.92-13.2,268.64-1.27,278.74,161.56Z"/>
  <path class="cls-1" d="M419.31,100.45c16.91,16.88,57.39,92.77,42.67,113.02-120.58,47.3-270.24-2.7-272.3-147.4,74.47,6.56,171.84-23.3,229.63,34.38Z"/>
  <path class="cls-1" d="M820.53,257.17c2.19,127.92-113.53,175.79-228.16,162.35-75.55-8.86-47.35-68.75-11.91-114.82,52.71-68.51,164.25-43.68,240.06-47.53Z"/>
  <path class="cls-1" d="M419.31,482.67c16.91,16.88,57.39,92.77,42.67,113.02-120.58,47.3-270.24-2.7-272.3-147.4,74.47,6.56,171.84-23.3,229.63,34.38Z"/>
  <path class="cls-1" d="M820.53,639.39c.26,134.31-122.69,182.95-242.08,161.57-80.39-14.39,6.53-130.94,55.08-150.52,58.81-23.72,126.25-6.11,187-11.05Z"/>
  <path class="cls-1" d="M820.45,66.07c-4.61,129.45-109.49,176.21-228.07,162.33-65.67-7.68-55.96-38.12-27.24-87.59,60.96-105.02,151.72-71.13,255.31-74.74Z"/>
  <path class="cls-1" d="M419.87,291.07c16.27,15.2,56.16,94.46,42.11,113.51-118.39,47-270.19-1.46-272.3-147.4,68.57,3.57,175.93-16.81,230.19,33.89Z"/>
  <rect class="cls-1" x="497.73" y="198.3" width="14.67" height="735.03"/>
</svg>